<svg viewBox="0 0 320 200" fill="none" xmlns="http://www.w3.org/2000/svg" role="img" aria-label="Wellness dashboard illustration">
  <defs>
    <linearGradient id="dh-accent" x1="0" y1="0" x2="1" y2="1">
      <stop offset="0" stop-color="#7FB8C9"/>
      <stop offset="1" stop-color="#4A90A4"/>
    </linearGradient>
    <linearGradient id="dh-card" x1="0" y1="0" x2="0" y2="1">
      <stop offset="0" stop-color="#7FB8C9" stop-opacity="0.30"/>
      <stop offset="1" stop-color="#4A90A4" stop-opacity="0.14"/>
    </linearGradient>
    <radialGradient id="dh-glow" cx="0.7" cy="0.3" r="0.7">
      <stop offset="0" stop-color="#7FB8C9" stop-opacity="0.40"/>
      <stop offset="1" stop-color="#7FB8C9" stop-opacity="0"/>
    </radialGradient>
  </defs>
  <circle cx="232" cy="60" r="96" fill="url(#dh-glow)"/>
  <rect x="24" y="44" width="150" height="100" rx="18" fill="url(#dh-card)" stroke="#7FB8C9" stroke-opacity="0.4" stroke-width="1.5"/>
  <polyline points="40,118 66,96 92,108 118,72 150,86" fill="none" stroke="url(#dh-accent)" stroke-width="4" stroke-linecap="round" stroke-linejoin="round"/>
  <circle cx="118" cy="72" r="5" fill="#2C6373"/>
  <rect x="40" y="58" width="48" height="8" rx="4" fill="#4A90A4" opacity="0.30"/>
  <rect x="196" y="58" width="100" height="40" rx="14" fill="url(#dh-card)" stroke="#7FB8C9" stroke-opacity="0.4" stroke-width="1.5"/>
  <circle cx="218" cy="78" r="12" fill="none" stroke="url(#dh-accent)" stroke-width="4"/>
  <path d="M218 78 m0 -12 a12 12 0 0 1 10 18" stroke="#2C6373" stroke-width="4" fill="none" stroke-linecap="round"/>
  <rect x="238" y="72" width="46" height="7" rx="3.5" fill="#4A90A4" opacity="0.30"/>
  <rect x="238" y="84" width="34" height="7" rx="3.5" fill="#4A90A4" opacity="0.20"/>
  <rect x="196" y="108" width="100" height="36" rx="14" fill="url(#dh-card)" stroke="#7FB8C9" stroke-opacity="0.4" stroke-width="1.5"/>
  <path d="M228 134 q-14 -10 -14 -20 a8 8 0 0 1 14 -4 a8 8 0 0 1 14 4 q0 10 -14 20 z" fill="url(#dh-accent)" opacity="0.85"/>
  <rect x="250" y="118" width="38" height="7" rx="3.5" fill="#4A90A4" opacity="0.30"/>
  <rect x="250" y="130" width="28" height="7" rx="3.5" fill="#4A90A4" opacity="0.20"/>
</svg>
