<svg width="2732" height="2732" viewBox="0 0 2732 2732" fill="none" xmlns="http://www.w3.org/2000/svg">
  <defs>
    <linearGradient id="sbg" x1="0" y1="0" x2="2732" y2="2732" gradientUnits="userSpaceOnUse">
      <stop offset="0" stop-color="#7FB8C9"/>
      <stop offset="0.55" stop-color="#4A90A4"/>
      <stop offset="1" stop-color="#2C6373"/>
    </linearGradient>
    <linearGradient id="spetal" x1="1366" y1="1080" x2="1366" y2="1620" gradientUnits="userSpaceOnUse">
      <stop offset="0" stop-color="#FFFFFF" stop-opacity="0.95"/>
      <stop offset="1" stop-color="#DCEFF2" stop-opacity="0.75"/>
    </linearGradient>
    <linearGradient id="spetalSide" x1="1366" y1="1100" x2="1366" y2="1600" gradientUnits="userSpaceOnUse">
      <stop offset="0" stop-color="#EAF6F8" stop-opacity="0.85"/>
      <stop offset="1" stop-color="#ABD6DE" stop-opacity="0.55"/>
    </linearGradient>
    <radialGradient id="sglow" cx="1366" cy="1300" r="520" gradientUnits="userSpaceOnUse">
      <stop offset="0" stop-color="#FFFFFF" stop-opacity="0.30"/>
      <stop offset="1" stop-color="#FFFFFF" stop-opacity="0"/>
    </radialGradient>
  </defs>

  <rect width="2732" height="2732" fill="url(#sbg)"/>
  <circle cx="1366" cy="1300" r="500" fill="url(#sglow)"/>
  <circle cx="1366" cy="1320" r="360" fill="#FFFFFF" fill-opacity="0.10" stroke="#FFFFFF" stroke-opacity="0.22" stroke-width="4"/>

  <g transform="translate(1366,1320) scale(1.45) translate(-512,-500)">
    <path d="M512 720 C 360 660 300 520 350 410 C 430 470 470 580 512 720 Z" fill="url(#spetalSide)"/>
    <path d="M512 720 C 664 660 724 520 674 410 C 594 470 554 580 512 720 Z" fill="url(#spetalSide)"/>
    <path d="M512 720 C 420 650 392 510 452 388 C 500 470 506 590 512 720 Z" fill="url(#spetal)"/>
    <path d="M512 720 C 604 650 632 510 572 388 C 524 470 518 590 512 720 Z" fill="url(#spetal)"/>
    <path d="M512 730 C 470 640 470 470 512 360 C 554 470 554 640 512 730 Z" fill="url(#spetal)"/>
  </g>

  <text x="1366" y="1880" font-family="Segoe UI, Roboto, Helvetica, Arial, sans-serif" font-size="180" font-weight="700" fill="#FFFFFF" text-anchor="middle" letter-spacing="6">Shathi</text>
</svg>
